<svg id="svg32847" xmlns="http://www.w3.org/2000/svg" viewBox="0 0 150 150"><defs><style>.cls-1{fill:#fff;}.cls-1,.cls-2{stroke:#000;stroke-linecap:round;stroke-linejoin:round;stroke-width:4px;}.cls-2{fill:none;}</style></defs><title>rock-paper-scissors</title><g id="g5439"><g id="g3915-6-1-6-3-8-9-4"><path id="path3894-6-1-0-5-5-2-9" class="cls-1" d="M44.65,124.26c-2.07,5.8-7,5.11-12,2.89-7.07-3.13-16.47-17.45-17.4-24.21-.86-6.2,1.36-11.06,6.18-11.69"/><path id="path3112-2-8-6-8-2-9-8" class="cls-1" d="M21.22,40.46c-7.53,1.64-3.36,13.56,3,25.21,2.46,4.52-4.51,23-.22,34.75C26.79,108.07,37.28,122,44.67,124c12.65,3.3,23.76,1.14,34.88-4.77a56.4,56.4,0,0,0,11-7.85c9.91-9.09,42.76-20.36,44.85-23.24,5.83-8-5.5-13.07-11.72-11-3,1-26,5.79-23,3.22a220.87,220.87,0,0,1,27-18.77c14.41-8.65-3.48-24.06-16.9-15.82C104.51,49.6,98.8,52.08,85,61c5.15-7.64,12.13-19.14,18-25.84,9.63-11-10.13-21.67-21.62-7.92C73.5,36.62,61.24,55,44.43,67.33c.15-10.52-.5-31.79-23.21-26.87Z"/><path id="path3882-6-1-33-9-9-7-9" d="M84.05,59.3A55.7,55.7,0,0,0,74.72,77,160,160,0,0,1,84.56,64a15.23,15.23,0,0,1,3.49-3Z"/><path id="path3884-6-1-2-9-6-6-0" d="M99.56,79c-5,4.21-10.06,10.49-12.33,15.49,2.7-2.34,7.32-6.4,11.36-10A6.65,6.65,0,0,1,103,82.74,18.71,18.71,0,0,1,99.56,79Z"/><path id="path3886-8-5-4-3-7-0-8" class="cls-2" d="M44.4,113.61c8.63-2.54,10.46-4.09,14.41-5.94"/><path id="path3888-4-4-9-8-4-7-4" class="cls-2" d="M38.87,107.73c8.56-5.07,12.2-8.32,17.59-12.21"/><path id="path3890-1-8-5-1-8-9-7" class="cls-2" d="M32.47,100.53a109.68,109.68,0,0,0,10.65-9.8"/></g></g></svg>