<svg id="svg32847" xmlns="http://www.w3.org/2000/svg" viewBox="0 0 150 150"><defs><style>.cls-1{fill:#fff;}.cls-1,.cls-2{stroke:#000;stroke-linecap:round;stroke-linejoin:round;stroke-width:4px;}.cls-2{fill:none;}</style></defs><title>rock-paper-scissors</title><g id="g32290"><path id="path32292" class="cls-1" d="M122.92,92.4c7.26,3,10.75-2.26,12.91-8.92,3-9.42-2.58-30.61-8.21-37.27-5.2-6.11-11.65-8.15-16.44-4.08"/><path id="path32294" class="cls-1" d="M62.39,26.37c16.87-3.66,46.1,8.05,55.43,26,4.71,9.28,9.22,31.13,4.73,39.82-7.62,14.88-19.23,23.64-34.35,29.19a72.12,72.12,0,0,1-16.86,3.76c-21.44,2.3-38.34-1.87-38.2-16.78-18.13-1.64-18.28-29.21-5-31.48C10.51,65.61,21.71,43.33,41.48,48.58,43.38,45.15,44.87,30.18,62.39,26.37Z"/><path id="path32296" d="M29.15,79c14.14,2.1,19.46-.51,23.2-1-8.94-1.08-11.23-1.12-20.64-3a12.59,12.59,0,0,1-5.19-2.18l.08,6.79A8.29,8.29,0,0,1,29.15,79Z"/><path id="path32298" d="M31.74,110.37c8.39.33,18.73-.21,25.18-3-4.61-.11-16.52-1.21-23.47-1.24,0,0,0,0-1.71,4.23Z"/><path id="path32300" class="cls-2" d="M113,83.07c-9.82,6.06-12.86,6.48-18,8.66"/><path id="path32302" class="cls-2" d="M112.09,72.78c-12.17,3.83-18.4,4.53-26.67,6.34"/><path id="path32304" class="cls-2" d="M110.68,60.53C102,62,97.79,61.93,92.29,62.31"/><path id="path32306" d="M40,46.27c18.87,1.3,25.13-5.37,33.76-10.52C65.15,42.86,63.11,51,41.28,50.8L40,46.27Z"/></g></svg>