<svg id="svg32847" xmlns="http://www.w3.org/2000/svg" viewBox="0 0 150 150"><defs><style>.cls-1{fill:#fff;}.cls-1,.cls-2{stroke:#000;stroke-linecap:round;stroke-linejoin:round;stroke-width:4px;}.cls-2{fill:none;}</style></defs><title>rock-paper-scissors</title><g id="imagebot_10" data-name="imagebot 10"><path id="imagebot_18" data-name="imagebot 18" class="cls-1" d="M19.09,73.46c-6.36,1-8.17-3.81-8.65-9.54C9.76,55.83,18.21,40,24,35.67c5.3-3.9,10.83-4.34,13.9-.19"/><path id="imagebot_17" data-name="imagebot 17" class="cls-1" d="M79.78,32C67,25.92,41.43,29.82,30.63,42.41c-5.49,6.53-13.17,23.15-11.2,30.94,3.31,13.31,11,22.47,22,29.73a58.58,58.58,0,0,0,12.76,6.15c15.09,4.92,28.32-2.84,33.66-6.28a232.48,232.48,0,0,1,30.91,15.4c15.23,8.91,20.4-15.35,6-23.55C118.08,91,112.92,87,97.71,78.73c9.64.89,23.75,1.52,32.86,3.52,15,3.31,14.86-20.26-3.6-23.91-12.57-2.49-22.63-2.38-34.63-4.7-.88-3.09.72-15.33-12.56-21.64Z"/><path id="imagebot_16" data-name="imagebot 16" d="M98.8,77c-11.59-1.79-18,0-21,.31A166.55,166.55,0,0,1,94.7,79.85a16,16,0,0,1,4.48,1.72Z"/><path id="imagebot_15" data-name="imagebot 15" d="M88.46,101.23c-6.41-2.51-14.74-4-20.48-3.55,7,2.57,12.53,4.59,19.26,6.88,0,0,.54-1.69,1.22-3.34Z"/><path id="imagebot_14" data-name="imagebot 14" class="cls-2" d="M28.78,67.86c6.71,6.68,9.07,7.59,12.74,10.27"/><path id="imagebot_13" data-name="imagebot 13" class="cls-2" d="M31.4,59.8c9,5.34,13.85,7.06,20.13,10"/><path id="imagebot_12" data-name="imagebot 12" class="cls-2" d="M34.81,50.28a114.54,114.54,0,0,0,14.37,4.86"/><path id="imagebot_11" data-name="imagebot 11" d="M93.93,52.07c-15.32-2.48-19.08-9-25-14.7,5.58,7.29,5.69,14.15,23.17,18.09l1.84-3.39Z"/></g></svg>